<svg width="48" height="48" viewBox="0 0 48 48" fill="none" xmlns="http://www.w3.org/2000/svg">
<g clip-path="url(#clip0_10_119)">
<mask id="mask0_10_119" style="mask-type:luminance" maskUnits="userSpaceOnUse" x="0" y="0" width="48" height="48">
<path d="M0 0H47.5V47.5H0V0Z" fill="white"/>
</mask>
<g mask="url(#mask0_10_119)">
<path d="M45 27.5H2.5C2.16848 27.5 1.85054 27.3683 1.61612 27.1339C1.3817 26.8995 1.25 26.5815 1.25 26.25C1.25 25.9185 1.3817 25.6005 1.61612 25.3661C1.85054 25.1317 2.16848 25 2.5 25H45C45.3315 25 45.6495 25.1317 45.8839 25.3661C46.1183 25.6005 46.25 25.9185 46.25 26.25C46.25 26.5815 46.1183 26.8995 45.8839 27.1339C45.6495 27.3683 45.3315 27.5 45 27.5Z" fill="#DFDFDF"/>
<path d="M17.2787 25L17.1925 24.9975C17.0775 24.9887 5.67498 24.105 3.77498 14.7037C3.70938 14.3787 3.77548 14.0409 3.95877 13.7646C4.14205 13.4883 4.42752 13.296 4.75248 13.23C4.91337 13.1972 5.07916 13.1965 5.24033 13.2279C5.4015 13.2593 5.55489 13.3222 5.69169 13.413C5.8285 13.5038 5.94603 13.6208 6.03754 13.7571C6.12905 13.8934 6.19275 14.0465 6.22498 14.2075C7.75123 21.7625 17.2662 22.4962 17.3625 22.5025C17.6815 22.5304 17.9777 22.6795 18.1901 22.9192C18.4025 23.1589 18.5149 23.4709 18.5041 23.7909C18.4934 24.111 18.3604 24.4148 18.1324 24.6397C17.9044 24.8646 17.5989 24.9936 17.2787 25Z" fill="#DFDFDF"/>
<path d="M5.00003 40C4.78976 39.9999 4.58292 39.9467 4.39866 39.8454C4.2144 39.7441 4.05867 39.5979 3.94588 39.4205C3.8331 39.243 3.7669 39.04 3.75343 38.8301C3.73995 38.6203 3.77962 38.4104 3.86878 38.22C7.82628 29.7575 17.6663 28.5687 18.0838 28.5225C18.4125 28.4877 18.7416 28.5839 18.9998 28.7904C19.2579 28.9968 19.4242 29.2967 19.4625 29.625C19.4991 29.9544 19.4038 30.2848 19.1974 30.5441C18.9911 30.8034 18.6905 30.9705 18.3613 31.0088C18.2738 31.0175 9.48753 32.1037 6.13253 39.28C6.03175 39.4953 5.87168 39.6773 5.67109 39.8049C5.47051 39.9324 5.23772 40.0001 5.00003 40Z" fill="#DFDFDF"/>
<path d="M29.6912 25C29.3664 25.0006 29.054 24.8747 28.8204 24.6489C28.5868 24.4232 28.4502 24.1153 28.4396 23.7906C28.4291 23.4659 28.5453 23.1499 28.7638 22.9094C28.9823 22.669 29.2858 22.523 29.61 22.5025C29.7112 22.4962 39.755 21.7312 41.275 14.2075C41.3066 14.0462 41.3699 13.8927 41.4612 13.756C41.5526 13.6194 41.6701 13.5022 41.8071 13.4113C41.9441 13.3203 42.0977 13.2575 42.2591 13.2264C42.4205 13.1953 42.5865 13.1965 42.7475 13.23C43.4237 13.3675 43.8625 14.0262 43.7262 14.7037C41.8237 24.11 30.265 24.9662 29.7725 24.9975C29.7454 24.999 29.7183 24.9998 29.6912 25Z" fill="#DFDFDF"/>
<path d="M42.5013 40C42.2634 40.0003 42.0303 39.9327 41.8295 39.8052C41.6287 39.6777 41.4684 39.4955 41.3675 39.28C37.9988 32.0762 28.7125 31.0175 28.62 31.0087C28.4568 30.9916 28.2985 30.9425 28.1542 30.8641C28.01 30.7858 27.8826 30.6798 27.7793 30.5523C27.6759 30.4247 27.5988 30.2781 27.5522 30.1207C27.5055 29.9633 27.4904 29.7982 27.5075 29.635C27.5247 29.4717 27.5738 29.3135 27.6521 29.1692C27.7305 29.025 27.8364 28.8975 27.964 28.7942C28.0915 28.6909 28.2382 28.6138 28.3956 28.5671C28.553 28.5205 28.718 28.5053 28.8813 28.5225C29.32 28.5687 39.6725 29.7525 43.6325 38.22C43.7217 38.4104 43.7613 38.6203 43.7479 38.8301C43.7344 39.04 43.6682 39.243 43.5554 39.4205C43.4426 39.5979 43.2869 39.7441 43.1026 39.8454C42.9184 39.9467 42.7115 39.9999 42.5013 40Z" fill="#DFDFDF"/>
<path d="M32.4875 10.9575C32.4012 7.675 30.8912 5.6875 28.6187 4.6575C28.7025 4.375 28.7512 4.07125 28.7512 3.75C28.7512 2.36875 27.9112 1.25 26.8762 1.25C25.8412 1.25 25.0012 2.36875 25.0012 3.75C25.0012 3.76875 25.005 3.78625 25.005 3.80375C24.595 3.77125 24.1787 3.75 23.7512 3.75C23.3237 3.75 22.9075 3.77125 22.4962 3.80375C22.4975 3.78625 22.5012 3.76875 22.5012 3.75C22.5012 2.36875 21.6612 1.25 20.6262 1.25C19.59 1.25 18.7512 2.36875 18.7512 3.75C18.7512 4.07125 18.8 4.375 18.8825 4.6575C16.6112 5.6875 15.1012 7.675 15.0137 10.9575C11.2262 13.1887 8.75122 17.0775 8.75122 22.5C8.75122 31.45 15.4662 43.6537 23.7512 43.6537C32.0362 43.6537 38.7512 31.45 38.7512 22.5C38.7512 17.0775 36.275 13.1887 32.4875 10.9575Z" fill="#DFDFDF"/>
<path d="M21.2513 44.9487C13.205 44.205 6.875 36.33 6.875 26.7225C6.875 17.1162 13.205 13.2462 21.25 12.5012C21.6625 12.4625 22.5 12.4437 22.5 15.3687V43.545C22.5 45.0075 21.6638 44.9887 21.2513 44.9487Z" fill="#DD2E44"/>
<path d="M26.2488 44.9487C34.295 44.205 40.625 36.33 40.625 26.7225C40.625 17.1162 34.295 13.2462 26.25 12.5012C25.8375 12.4625 25 12.4437 25 15.3687V43.545C25 45.0075 25.8375 44.9887 26.2488 44.9487Z" fill="#DD2E44"/>
<path d="M20 20C19.9999 20.3284 19.9352 20.6535 19.8094 20.9569C19.6837 21.2603 19.4994 21.5359 19.2672 21.768C19.0349 22.0002 18.7592 22.1843 18.4558 22.3099C18.1524 22.4355 17.8272 22.5001 17.4988 22.5C17.1704 22.4999 16.8452 22.4352 16.5419 22.3094C16.2385 22.1837 15.9629 21.9994 15.7308 21.7671C15.4986 21.5349 15.3145 21.2592 15.1889 20.9557C15.0633 20.6523 14.9987 20.3271 14.9988 19.9987C14.9989 19.3355 15.2626 18.6996 15.7316 18.2307C16.2007 17.7619 16.8368 17.4986 17.5 17.4988C18.1632 17.4989 18.7992 17.7625 19.2681 18.2316C19.7369 18.7007 20.0002 19.3368 20 20Z" fill="#DFDFDF"/>
<path d="M17.5 28.75C17.5 29.7446 17.1049 30.6984 16.4017 31.4017C15.6984 32.1049 14.7446 32.5 13.75 32.5C12.7554 32.5 11.8016 32.1049 11.0983 31.4017C10.3951 30.6984 10 29.7446 10 28.75C10 27.7554 10.3951 26.8016 11.0983 26.0983C11.8016 25.3951 12.7554 25 13.75 25C14.7446 25 15.6984 25.3951 16.4017 26.0983C17.1049 26.8016 17.5 27.7554 17.5 28.75Z" fill="#DFDFDF"/>
<path d="M20 37.5C19.9999 37.8284 19.9352 38.1535 19.8094 38.4569C19.6837 38.7603 19.4994 39.0359 19.2672 39.268C19.0349 39.5002 18.7592 39.6843 18.4558 39.8099C18.1524 39.9355 17.8272 40.0001 17.4988 40C17.1704 39.9999 16.8452 39.9352 16.5419 39.8094C16.2385 39.6837 15.9629 39.4994 15.7308 39.2671C15.4986 39.0349 15.3145 38.7592 15.1889 38.4557C15.0633 38.1523 14.9987 37.8271 14.9988 37.4987C14.9989 36.8355 15.2626 36.1996 15.7316 35.7307C16.2007 35.2619 16.8368 34.9986 17.5 34.9988C18.1632 34.9989 18.7992 35.2625 19.2681 35.7316C19.7369 36.2007 20.0002 36.8368 20 37.5Z" fill="#DFDFDF"/>
<path d="M35 19.375C35 20.2038 34.6708 20.9987 34.0847 21.5847C33.4987 22.1708 32.7038 22.5 31.875 22.5C31.0462 22.5 30.2513 22.1708 29.6653 21.5847C29.0792 20.9987 28.75 20.2038 28.75 19.375C28.75 18.5462 29.0792 17.7513 29.6653 17.1653C30.2513 16.5792 31.0462 16.25 31.875 16.25C32.7038 16.25 33.4987 16.5792 34.0847 17.1653C34.6708 17.7513 35 18.5462 35 19.375Z" fill="#DFDFDF"/>
<path d="M31.25 26.875C31.2499 27.1213 31.2014 27.3652 31.107 27.5927C31.0127 27.8203 30.8745 28.027 30.7002 28.2011C30.526 28.3752 30.3192 28.5133 30.0916 28.6075C29.864 28.7016 29.6201 28.7501 29.3738 28.75C29.1275 28.7499 28.8836 28.7013 28.6561 28.607C28.4285 28.5127 28.2218 28.3744 28.0477 28.2002C27.8736 28.026 27.7355 27.8192 27.6413 27.5916C27.5471 27.364 27.4987 27.1201 27.4988 26.8737C27.4989 26.3763 27.6967 25.8993 28.0486 25.5477C28.4004 25.196 28.8776 24.9986 29.375 24.9988C29.8725 24.9989 30.3495 25.1967 30.7011 25.5485C31.0527 25.9004 31.2502 26.3776 31.25 26.875Z" fill="#DFDFDF"/>
<path d="M38.75 30C38.7499 30.3284 38.6852 30.6535 38.5594 30.9569C38.4337 31.2603 38.2494 31.5359 38.0172 31.768C37.7849 32.0002 37.5092 32.1843 37.2058 32.3099C36.9024 32.4355 36.5772 32.5001 36.2488 32.5C35.9204 32.4999 35.5952 32.4352 35.2919 32.3094C34.9885 32.1837 34.7129 31.9994 34.4808 31.7671C34.2486 31.5349 34.0645 31.2592 33.9389 30.9557C33.8133 30.6523 33.7487 30.3271 33.7488 29.9987C33.7489 29.3355 34.0126 28.6996 34.4816 28.2307C34.9507 27.7619 35.5868 27.4986 36.25 27.4988C36.9132 27.4989 37.5492 27.7625 38.0181 28.2316C38.4869 28.7007 38.7502 29.3368 38.75 30Z" fill="#DFDFDF"/>
<path d="M35 37.5C35 38.4946 34.6049 39.4484 33.9017 40.1517C33.1984 40.8549 32.2446 41.25 31.25 41.25C30.2554 41.25 29.3016 40.8549 28.5983 40.1517C27.8951 39.4484 27.5 38.4946 27.5 37.5C27.5 36.5054 27.8951 35.5516 28.5983 34.8483C29.3016 34.1451 30.2554 33.75 31.25 33.75C32.2446 33.75 33.1984 34.1451 33.9017 34.8483C34.6049 35.5516 35 36.5054 35 37.5Z" fill="#DFDFDF"/>
</g>
</g>
<defs>
<clipPath id="clip0_10_119">
<rect width="47.5" height="47.5" fill="white"/>
</clipPath>
</defs>
</svg>
